<svg width="64" height="64" viewBox="0 0 64 64" fill="none" xmlns="http://www.w3.org/2000/svg">
<g id="lender 1" clip-path="url(#clip0_174_11330)">
<path id="Vector" d="M61.597 39.58L39.1157 54.8026C37.403 55.9626 35.406 56.1836 33.4785 55.429L26.5585 52.7122C24.7763 52.0101 22.9489 52.1481 21.2925 53.1066L20.6834 53.4595L11.9323 38.2991L13.5546 37.365L17.1947 35.2612C18.5337 34.4895 19.9351 34.2612 21.4512 34.5689L41.2091 38.5873C42.9669 38.9438 44.1815 40.508 44.1742 42.2394H44.1705C44.1705 42.4751 44.1461 42.7132 44.0973 42.9525C43.692 44.9501 41.7267 46.2481 39.7345 45.8427L27.2604 43.3054C26.7868 43.2089 26.3193 43.5203 26.2228 43.994L26.1703 44.2395C26.0739 44.7169 26.3852 45.1845 26.8588 45.281L39.3329 47.8183C42.4127 48.4447 45.4473 46.4373 46.0735 43.353C46.2359 42.5496 46.2188 41.751 46.0528 40.9964L57.5089 33.4064C59.2044 32.2855 61.5127 32.752 62.637 34.4516C63.7625 36.1464 63.2925 38.4554 61.597 39.58ZM8.39598 36.2087C7.98094 35.4859 7.0459 35.2355 6.32692 35.6519L1.50645 38.4347C0.786244 38.8535 0.533563 39.7851 0.952257 40.508L13.2811 61.8676C13.6962 62.5904 14.6312 62.8407 15.3539 62.4219L20.1707 59.6428C20.8933 59.224 21.1436 58.2924 20.7249 57.5695L8.39598 36.2087ZM23.0771 25.4721C23.0771 21.3328 26.4511 17.9542 30.5929 17.9542C34.731 17.9542 38.1049 21.3328 38.1049 25.4721C38.1049 29.6115 34.731 32.9901 30.5929 32.9901C26.4511 32.9901 23.0771 29.6115 23.0771 25.4721ZM27.4716 23.7664C27.4716 24.5551 27.8561 25.2585 28.4713 25.753C29.0182 26.1926 29.7518 26.4697 30.5514 26.4795H30.5794C30.9285 26.4795 31.2374 26.5869 31.4486 26.7567C31.6011 26.8776 31.6939 27.0302 31.6939 27.1792C31.6939 27.3281 31.5999 27.4771 31.4486 27.598C31.2374 27.7714 30.9298 27.8751 30.5794 27.8751C30.2608 27.8751 29.9776 27.7884 29.7665 27.6431C29.6041 27.5284 29.4967 27.3904 29.4686 27.2451C29.3685 26.6981 28.8461 26.3379 28.2992 26.4392C27.7523 26.5393 27.3922 27.0619 27.4935 27.609C27.6181 28.294 28.0331 28.8862 28.6251 29.2976C28.9059 29.4918 29.2269 29.6432 29.5736 29.7482V30.3441C29.5736 30.9009 30.0228 31.3514 30.5807 31.3514C31.1373 31.3514 31.5914 30.9021 31.5914 30.3441V29.7482C32.0101 29.6237 32.3946 29.4234 32.712 29.167C33.3284 28.6725 33.7117 27.9692 33.7117 27.1804C33.7117 26.3916 33.3272 25.6883 32.712 25.1901C32.1651 24.7542 31.4315 24.477 30.6319 24.4672C30.6209 24.4672 30.6148 24.4636 30.6038 24.4636C30.2547 24.4636 29.9459 24.3598 29.7359 24.1901C29.5834 24.0655 29.4906 23.9165 29.4906 23.7676C29.4906 23.6186 29.5846 23.466 29.7359 23.3451C29.9471 23.1754 30.2547 23.0679 30.6038 23.0679C30.9224 23.0679 31.2056 23.1583 31.4168 23.3036C31.5792 23.4147 31.6866 23.5563 31.7147 23.698C31.8148 24.245 32.3372 24.6089 32.8841 24.5075C33.4309 24.4074 33.791 23.8811 33.6897 23.3378C33.5652 22.6528 33.1502 22.0606 32.5582 21.6491C32.2774 21.4549 31.9564 21.2999 31.6097 21.1985V20.6027C31.6097 20.0459 31.1593 19.5916 30.6026 19.5916C30.046 19.5916 29.5919 20.0446 29.5919 20.6027V21.1985C29.1732 21.3231 28.7887 21.5233 28.4713 21.7761C27.8561 22.2743 27.4716 22.9763 27.4716 23.7664ZM49.6074 17.9542C53.7492 17.9542 57.1232 21.3328 57.1232 25.4721C57.1232 29.6115 53.7492 32.9901 49.6074 32.9901C45.4693 32.9901 42.0917 29.6115 42.0917 25.4721C42.0917 21.3328 45.4681 17.9542 49.6074 17.9542ZM46.4898 23.7664C46.4898 24.5551 46.8743 25.2585 47.4895 25.753C48.0364 26.1926 48.77 26.4697 49.5696 26.4795H49.5977C49.9468 26.4795 50.2556 26.5869 50.4656 26.7567C50.6181 26.8776 50.7109 27.0302 50.7109 27.1792C50.7109 27.3281 50.6169 27.4771 50.4656 27.598C50.2544 27.7714 49.9468 27.8751 49.5977 27.8751C49.2791 27.8751 48.9959 27.7884 48.7847 27.6431C48.6223 27.5284 48.5112 27.3904 48.4868 27.2451C48.3867 26.6981 47.8643 26.3379 47.3174 26.4392C46.7706 26.5393 46.4105 27.0619 46.5118 27.609C46.6363 28.294 47.0513 28.8862 47.6433 29.2976C47.9241 29.4918 48.2415 29.6432 48.5918 29.7482V30.3441C48.5918 30.9009 49.0422 31.3514 49.5989 31.3514C50.1555 31.3514 50.6059 30.9021 50.6059 30.3441V29.7482C51.0283 29.6237 51.4116 29.4234 51.7265 29.167C52.3454 28.6725 52.7299 27.9692 52.7299 27.1804C52.7299 26.3916 52.3454 25.6883 51.7265 25.1901C51.1833 24.7542 50.446 24.477 49.6501 24.4672C49.6392 24.4672 49.6294 24.4636 49.6221 24.4636C49.2693 24.4636 48.9641 24.3598 48.7505 24.1901C48.6016 24.0655 48.5051 23.9165 48.5051 23.7676C48.5051 23.6186 48.6016 23.466 48.7505 23.3451C48.9653 23.1754 49.2693 23.0679 49.6221 23.0679C49.9407 23.0679 50.2239 23.1583 50.435 23.3036C50.5937 23.4147 50.7048 23.5563 50.7329 23.698C50.833 24.245 51.3554 24.6089 51.9023 24.5075C52.4492 24.4074 52.8093 23.8811 52.708 23.3378C52.5834 22.6528 52.1684 22.0606 51.5764 21.6491C51.2956 21.4549 50.9746 21.2999 50.6279 21.1985V20.6027C50.6279 20.0459 50.175 19.5916 49.6208 19.5916C49.0642 19.5916 48.6101 20.0446 48.6101 20.6027V21.1985C48.1878 21.3231 47.8069 21.5233 47.4895 21.7761C46.8731 22.2743 46.4898 22.9763 46.4898 23.7664ZM32.5862 8.89292C32.5862 4.74994 35.9602 1.375 40.0983 1.375C44.2401 1.375 47.614 4.74994 47.614 8.89292C47.614 13.0322 44.2401 16.4072 40.0983 16.4072C35.9602 16.4072 32.5862 13.0322 32.5862 8.89292ZM36.9807 7.18713C36.9807 7.97592 37.3652 8.67924 37.9804 9.17376C38.5273 9.61333 39.2609 9.88684 40.0605 9.90027H40.0885C40.4377 9.90027 40.7465 10.0041 40.9564 10.1774C41.109 10.2983 41.2018 10.4473 41.2018 10.5963C41.2018 10.7489 41.1078 10.8979 40.9564 11.0187C40.7453 11.1885 40.4377 11.2959 40.0885 11.2959C39.7699 11.2959 39.4867 11.2092 39.2756 11.0603C39.1132 10.9491 39.0058 10.8075 38.9777 10.6659C38.8776 10.1188 38.3552 9.75863 37.8083 9.85998C37.2614 9.96132 36.9013 10.4827 37.0027 11.0297C37.1272 11.7111 37.5422 12.3069 38.1342 12.7148C38.415 12.9089 38.736 13.064 39.0827 13.1678V13.7636C39.0827 14.3204 39.5331 14.771 40.0898 14.771C40.6464 14.771 41.0968 14.3204 41.0968 13.7636V13.1678C41.5192 13.0432 41.9025 12.843 42.2174 12.5866C42.8363 12.092 43.2208 11.3851 43.2208 10.5963C43.2208 9.80747 42.8363 9.10416 42.2174 8.60964C41.6742 8.17006 40.9406 7.89655 40.141 7.88312C40.13 7.88312 40.1203 7.88312 40.113 7.88312C39.7638 7.88312 39.455 7.77933 39.2451 7.60595C39.0925 7.48506 38.9997 7.3361 38.9997 7.18713C38.9997 7.0345 39.0937 6.88554 39.2451 6.76465C39.4562 6.59493 39.7638 6.48748 40.113 6.48748C40.4316 6.48748 40.7148 6.57783 40.9259 6.72314C41.0883 6.83425 41.1957 6.97589 41.2238 7.11753C41.3239 7.66456 41.8463 8.02476 42.3932 7.92342C42.9401 7.82329 43.3002 7.30069 43.1988 6.75366C43.0743 6.07233 42.6593 5.47646 42.0673 5.06863C41.7865 4.87449 41.4655 4.71942 41.1188 4.61563V4.01976C41.1188 3.46297 40.6684 3.01241 40.1117 3.01241C39.5551 3.01241 39.101 3.46297 39.101 4.01976V4.61563C38.6823 4.74017 38.2978 4.94042 37.9804 5.19684C37.3652 5.69136 36.9807 6.39712 36.9807 7.18713Z" fill="white"/>
</g>
<defs>
<clipPath id="clip0_174_11330">
<rect width="64" height="64" fill="white" transform="translate(-0.000244141)"/>
</clipPath>
</defs>
</svg>
