<svg width="65" height="64" viewBox="0 0 65 64" fill="none" xmlns="http://www.w3.org/2000/svg">
<g id="filter 1">
<g id="Group">
<path id="Vector" d="M32.3333 15C35.4399 15 37.9583 12.4816 37.9583 9.375C37.9583 6.2684 35.4399 3.75 32.3333 3.75C29.2267 3.75 26.7083 6.2684 26.7083 9.375C26.7083 12.4816 29.2267 15 32.3333 15Z" fill="url(#paint0_linear_174_11289)"/>
<path id="Vector_2" d="M22.9583 24.375V26.25H41.7083V24.375C41.7083 19.2059 37.5041 15 32.3333 15C27.1624 15 22.9583 19.2059 22.9583 24.375Z" fill="url(#paint1_linear_174_11289)"/>
<path id="Vector_3" d="M17.3333 11.25C20.4399 11.25 22.9583 8.7316 22.9583 5.625C22.9583 2.5184 20.4399 0 17.3333 0C14.2267 0 11.7083 2.5184 11.7083 5.625C11.7083 8.7316 14.2267 11.25 17.3333 11.25Z" fill="url(#paint2_linear_174_11289)"/>
<path id="Vector_4" d="M47.3333 11.25C50.4399 11.25 52.9583 8.7316 52.9583 5.625C52.9583 2.5184 50.4399 0 47.3333 0C44.2267 0 41.7083 2.5184 41.7083 5.625C41.7083 8.7316 44.2267 11.25 47.3333 11.25Z" fill="url(#paint3_linear_174_11289)"/>
<path id="Vector_5" d="M26.7083 64L37.9583 60.25V45.125L56.7083 30H7.95825L26.7083 45.125V64Z" fill="url(#paint4_linear_174_11289)"/>
<path id="Vector_6" d="M24.134 14.2101C22.4238 12.3976 20.0169 11.25 17.3333 11.25C12.1624 11.25 7.95825 15.4559 7.95825 20.625V22.5H19.3978C19.8828 19.1549 21.6195 16.243 24.134 14.2101Z" fill="url(#paint5_linear_174_11289)"/>
<path id="Vector_7" d="M45.2687 22.5H56.7082V20.625C56.7082 15.4559 52.5041 11.25 47.3332 11.25C44.6496 11.25 42.2427 12.3976 40.5325 14.2101C43.047 16.243 44.7837 19.1549 45.2687 22.5Z" fill="url(#paint6_linear_174_11289)"/>
</g>
</g>
<defs>
<linearGradient id="paint0_linear_174_11289" x1="32.3333" y1="3.75" x2="32.3333" y2="15" gradientUnits="userSpaceOnUse">
<stop stop-color="#FF0000"/>
<stop offset="1" stop-color="#990000"/>
</linearGradient>
<linearGradient id="paint1_linear_174_11289" x1="32.3333" y1="15" x2="32.3333" y2="26.25" gradientUnits="userSpaceOnUse">
<stop stop-color="#FF0000"/>
<stop offset="1" stop-color="#990000"/>
</linearGradient>
<linearGradient id="paint2_linear_174_11289" x1="17.3333" y1="0" x2="17.3333" y2="11.25" gradientUnits="userSpaceOnUse">
<stop stop-color="#FF0000"/>
<stop offset="1" stop-color="#990000"/>
</linearGradient>
<linearGradient id="paint3_linear_174_11289" x1="47.3333" y1="0" x2="47.3333" y2="11.25" gradientUnits="userSpaceOnUse">
<stop stop-color="#FF0000"/>
<stop offset="1" stop-color="#990000"/>
</linearGradient>
<linearGradient id="paint4_linear_174_11289" x1="32.3333" y1="30" x2="32.3333" y2="64" gradientUnits="userSpaceOnUse">
<stop stop-color="#FF0000"/>
<stop offset="1" stop-color="#990000"/>
</linearGradient>
<linearGradient id="paint5_linear_174_11289" x1="16.0461" y1="11.25" x2="16.0461" y2="22.5" gradientUnits="userSpaceOnUse">
<stop stop-color="#FF0000"/>
<stop offset="1" stop-color="#990000"/>
</linearGradient>
<linearGradient id="paint6_linear_174_11289" x1="48.6203" y1="11.25" x2="48.6203" y2="22.5" gradientUnits="userSpaceOnUse">
<stop stop-color="#FF0000"/>
<stop offset="1" stop-color="#990000"/>
</linearGradient>
</defs>
</svg>
